<svg width="60" height="60" viewBox="0 0 60 60" fill="none" xmlns="http://www.w3.org/2000/svg">
<path fill-rule="evenodd" clip-rule="evenodd" d="M3.15186 31.8103L32.8201 2.14214C32.8515 2.10659 32.8854 2.07329 32.9216 2.04252C34.8799 0.171412 37.9844 0.198451 39.9096 2.12364L58.3194 20.5334C60.2535 22.4676 60.2313 25.6096 58.2715 27.5162L29.0638 56.7239L28.9434 56.8478C26.9995 58.8485 23.7944 58.8715 21.8219 56.899L13.379 48.4562L1.70541 60.082C1.31409 60.4718 0.680924 60.4705 0.291201 60.0791C-0.0985215 59.6878 -0.0972241 59.0547 0.2941 58.6649L11.9648 47.042L9.58164 44.6588L4.64849 49.6418C4.25993 50.0342 3.62678 50.0374 3.23429 49.6489C2.84181 49.2603 2.83863 48.6271 3.22719 48.2347L8.16741 43.2445L3.15186 38.229C1.3794 36.4565 1.3794 33.5828 3.15186 31.8103ZM56.9052 21.9477C57.9625 23.0049 58.0326 24.6716 57.1243 25.8098L49.1067 25.9175L34.6802 25.8482L34.5814 5.28748L34.5717 3.26051C35.747 2.37503 37.425 2.46748 38.4954 3.53786L56.9052 21.9477ZM34.6898 27.8482L46.6665 27.9058L41.9739 32.4855C41.5786 32.8712 41.5709 33.5044 41.9567 33.8996C42.3424 34.2949 42.9755 34.3026 43.3708 33.9168L49.5236 27.912L55.1224 27.8369L29.34 53.6192L29.2441 33.6393L29.727 33.6417L29.7272 33.6417C32.4818 33.6549 34.707 31.4298 34.6938 28.6752L34.6898 27.8482ZM27.244 33.6295L27.3496 55.6067C26.1736 56.6533 24.3671 56.6158 23.2361 55.4848L14.0876 46.3363L10.2852 42.5339L4.56607 36.8148C3.66792 35.9166 3.58344 34.5129 4.31263 33.5196L6.33954 33.5294L6.3396 33.5294L11.3157 33.553H11.3158L18.2822 33.5867H18.2823L27.244 33.6295ZM6.34909 31.5294L6.26165 31.529L32.581 5.20959L32.5815 5.29709L32.685 26.8482L32.6938 28.6848C32.7017 30.3272 31.3795 31.6495 29.737 31.6417H29.7368L28.2443 31.6343L28.244 31.6343L20.6897 31.5982L24.4416 27.8461C24.8321 27.4556 24.8321 26.8224 24.4416 26.4319C24.051 26.0414 23.4179 26.0414 23.0273 26.4319L17.8748 31.5847L13.7231 31.5646L24.4081 20.8796C24.7986 20.4891 24.7986 19.8559 24.4081 19.4654C24.0176 19.0748 23.3844 19.0748 22.9939 19.4654L10.9083 31.551L6.34915 31.5294H6.34909ZM8.25441 58.7049C7.86388 59.0954 7.86389 59.7285 8.25441 60.1191C8.64493 60.5096 9.2781 60.5096 9.66862 60.1191L15.116 54.6717C15.5066 54.2811 15.5066 53.648 15.116 53.2574C14.7255 52.8669 14.0924 52.8669 13.7018 53.2574L8.25441 58.7049ZM27.4139 17.5004C27.228 17.6864 26.97 17.7934 26.707 17.7934C26.444 17.7934 26.186 17.6864 26 17.5004C25.8139 17.3144 25.707 17.0564 25.707 16.7934C25.707 16.5294 25.814 16.2724 26 16.0864C26.186 15.8994 26.444 15.7934 26.707 15.7934C26.97 15.7934 27.228 15.8994 27.4139 16.0864C27.6 16.2724 27.707 16.5294 27.707 16.7934C27.707 17.0564 27.5999 17.3144 27.4139 17.5004ZM1.91393 51.9141C1.72803 52.1001 1.47003 52.2071 1.20703 52.2071C0.944032 52.2071 0.686032 52.1001 0.500032 51.9141C0.313932 51.7281 0.207032 51.4701 0.207032 51.2071C0.207032 50.9431 0.314032 50.6861 0.500032 50.5001C0.686032 50.3131 0.944032 50.2071 1.20703 50.2071C1.47003 50.2071 1.72803 50.3131 1.91393 50.5001C2.10003 50.6861 2.20703 50.9431 2.20703 51.2071C2.20703 51.4701 2.09993 51.7281 1.91393 51.9141Z" fill="#202020"/>
</svg>
