<svg width="125" height="50" viewBox="0 0 125 50" fill="none" xmlns="http://www.w3.org/2000/svg">
<path fill-rule="evenodd" clip-rule="evenodd" d="M0 47.0477L0.264926 46.8391C0.533619 46.8287 1.19289 46.8669 1.91354 46.9087L1.91364 46.9087H1.91371H1.91375L1.91398 46.9087C2.66785 46.9524 3.4888 47 4 47C6.67772 46.8878 9.14766 46.4366 9.59345 46.1784C10.2337 45.8075 11.1499 45.1004 12.342 43.3618C12.7895 42.6933 13.7492 41.2519 15.0421 39.307C15.048 39.2302 15.0509 39.162 15.0509 39.1055C15.0509 38.3637 14.6094 37.8305 13.7263 37.5059C12.8653 37.1582 10.3816 36.88 6.27527 36.6714L6.01035 36.428V34.6893L6.27527 34.4459C6.67266 34.4459 8.1546 34.5031 9.11909 34.5441C9.67442 34.5227 10.6531 34.5245 11.7617 34.5265C14.2669 34.5311 17.4352 34.5369 17.879 34.2798C18.1869 34.1014 18.5112 33.8791 18.8974 33.5029C19.8978 31.996 20.9597 30.3959 22.0481 28.7552C22.1072 28.4382 22.1367 28.1429 22.1367 27.9642C22.1367 27.2224 21.6952 26.6892 20.8121 26.3646C19.9511 26.0169 17.4674 25.7387 13.3611 25.5301L13.0961 25.2867V23.548L13.3611 23.3046C13.7584 23.3046 15.0279 23.351 17.1694 23.4437L25.5014 23.5479C26.8002 21.5887 28.0856 19.6489 29.3012 17.8132C29.409 17.3803 29.4629 16.9262 29.4629 16.6847C29.4629 15.9429 29.0213 15.4097 28.1383 15.0851C27.2773 14.7374 24.7936 14.4592 20.6872 14.2506L20.4223 14.0072V12.2685L20.6872 12.0251C21.0846 12.0251 22.3541 12.0715 24.4955 12.1642C30.77 12.3146 32.868 12.1914 33.1139 12.0512C35.4039 8.58621 36.9641 6.2157 37.0795 6.01571C37.3665 5.50571 37.51 5.05366 37.51 4.65957C37.51 3.91775 37.0684 3.38456 36.1854 3.06002C35.3243 2.71229 32.8407 2.43411 28.7343 2.22547L28.4694 1.98206V0.24341L28.7343 0C29.1317 0 30.4011 0.0463639 32.5426 0.139092C34.6841 0.231819 47.5507 0.139092 47.5507 0.139092V49.8504H41.4176V4.48571H40.5235L28.7674 23.7151L19.6937 38.5631C17.3756 42.3649 16.1614 44.4513 16.051 44.8222C15.9406 45.1699 15.8854 45.4481 15.8854 45.6568C15.8854 46.5609 16.5588 46.6768 17.9055 46.7L20.356 46.8391L20.621 47.0477V49.6634L20.356 49.8504H0.264926L0 49.6634V47.0477ZM62.1386 44.2102C62.1386 44.3954 62.125 44.6589 62.0979 45.0007H53.5728C53.722 45.841 54.1086 46.5105 54.7326 47.009C55.3701 47.4932 56.1568 47.7354 57.0927 47.7354C58.2864 47.7354 59.2698 47.3223 60.0429 46.4962L61.4061 48.1413C60.9178 48.7537 60.3007 49.2166 59.5546 49.53C58.8086 49.8433 57.9676 50 57.0317 50C55.838 50 54.7868 49.7507 53.878 49.2522C52.9692 48.7537 52.2639 48.063 51.762 47.1799C51.2737 46.2826 51.0295 45.2713 51.0295 44.1461C51.0295 43.0352 51.2669 42.0382 51.7417 41.1551C52.23 40.2578 52.9014 39.5599 53.7559 39.0614C54.6105 38.5629 55.5735 38.3136 56.6451 38.3136C57.7031 38.3136 58.6458 38.5629 59.4732 39.0614C60.3142 39.5457 60.9653 40.2364 61.4265 41.1337C61.9012 42.0168 62.1386 43.0423 62.1386 44.2102ZM56.6451 40.4501C55.8313 40.4501 55.1395 40.7065 54.5698 41.2192C54.0137 41.7177 53.6746 42.3871 53.5525 43.2275H59.7174C59.6089 42.4014 59.2766 41.732 58.7204 41.2192C58.1643 40.7065 57.4725 40.4501 56.6451 40.4501ZM69.8645 50C68.7386 50 67.7281 49.7507 66.8329 49.2522C65.9376 48.7537 65.2391 48.063 64.7372 47.1799C64.2353 46.2826 63.9844 45.2713 63.9844 44.1461C63.9844 43.0209 64.2353 42.0168 64.7372 41.1337C65.2391 40.2507 65.9309 39.5599 66.8125 39.0614C67.7078 38.5629 68.7251 38.3136 69.8645 38.3136C70.9361 38.3136 71.872 38.5415 72.6723 38.9973C73.4861 39.4531 74.0965 40.1082 74.5034 40.9628L72.5502 42.1592C72.2382 41.6323 71.8448 41.2406 71.3701 40.9842C70.9089 40.7136 70.4003 40.5783 69.8441 40.5783C68.8946 40.5783 68.1079 40.9059 67.484 41.561C66.86 42.202 66.548 43.0637 66.548 44.1461C66.548 45.2286 66.8532 46.0974 67.4636 46.7526C68.0876 47.3935 68.8811 47.714 69.8441 47.714C70.4003 47.714 70.9089 47.5858 71.3701 47.3294C71.8448 47.0588 72.2382 46.66 72.5502 46.133L74.5034 47.3294C74.0829 48.184 73.4658 48.8463 72.6519 49.3163C71.8516 49.7721 70.9225 50 69.8645 50ZM86.7161 45.0007C86.7433 44.6589 86.7568 44.3954 86.7568 44.2102C86.7568 43.0423 86.5195 42.0168 86.0447 41.1337C85.5835 40.2364 84.9324 39.5457 84.0915 39.0614C83.264 38.5629 82.3213 38.3136 81.2633 38.3136C80.1918 38.3136 79.2287 38.5629 78.3742 39.0614C77.5196 39.5599 76.8482 40.2578 76.3599 41.1551C75.8851 42.0382 75.6478 43.0352 75.6478 44.1461C75.6478 45.2713 75.8919 46.2826 76.3802 47.1799C76.8821 48.063 77.5874 48.7537 78.4962 49.2522C79.405 49.7507 80.4563 50 81.6499 50C82.5858 50 83.4268 49.8433 84.1728 49.53C84.9189 49.2166 85.536 48.7537 86.0244 48.1413L84.6612 46.4962C83.888 47.3223 82.9046 47.7354 81.7109 47.7354C80.775 47.7354 79.9883 47.4932 79.3508 47.009C78.7268 46.5105 78.3402 45.841 78.191 45.0007H86.7161ZM79.188 41.2192C79.7577 40.7065 80.4495 40.4501 81.2633 40.4501C82.0907 40.4501 82.7825 40.7065 83.3386 41.2192C83.8948 41.732 84.2271 42.4014 84.3356 43.2275H78.1707C78.2928 42.3871 78.6319 41.7177 79.188 41.2192ZM89.5385 38.4418H92.0818V43.0779H97.555V38.4418H100.098V49.8505H97.555V45.3425H92.0818V49.8505H89.5385V38.4418ZM106.05 45.2785H108.024L111.299 49.8505H114.29L110.079 43.9325L114.026 38.4418H111.299L108.085 43.0565H106.05V38.4418H103.507V49.8505H106.05V45.2785ZM119.934 38.3136C121.535 38.3136 122.756 38.7196 123.597 39.5314C124.451 40.329 124.878 41.5397 124.878 43.1634V49.8505H122.478V48.4618C122.166 48.9603 121.718 49.3448 121.135 49.6154C120.565 49.8718 119.873 50 119.059 50C118.246 50 117.533 49.8576 116.923 49.5727C116.313 49.2736 115.838 48.8677 115.499 48.3549C115.173 47.8279 115.01 47.2369 115.01 46.5817C115.01 45.5562 115.37 44.7372 116.089 44.1248C116.821 43.4981 117.967 43.1847 119.527 43.1847H122.335V43.0138C122.335 42.2162 122.105 41.6038 121.643 41.1765C121.196 40.7492 120.524 40.5355 119.629 40.5355C119.019 40.5355 118.415 40.6352 117.818 40.8346C117.235 41.034 116.74 41.3118 116.333 41.6679L115.336 39.7237C115.906 39.2679 116.591 38.919 117.391 38.6768C118.191 38.4347 119.039 38.3136 119.934 38.3136ZM119.588 48.0558C120.226 48.0558 120.789 47.9063 121.277 47.6072C121.779 47.2938 122.132 46.8523 122.335 46.2826V44.958H119.71C118.246 44.958 117.513 45.4636 117.513 46.4749C117.513 46.9591 117.696 47.3437 118.062 47.6285C118.429 47.9134 118.937 48.0558 119.588 48.0558ZM83.4601 0H124.153L125 0.890186V29.3762L124.153 30.2663H83.4601L82.6123 29.3762V0.890186L83.4601 0ZM117.839 22.3268V24.7064H105.147V22.8465L112.339 15.3246C113.213 14.4129 113.802 13.6288 114.105 12.9724C114.408 12.2977 114.559 11.623 114.559 10.9483C114.559 9.94539 114.231 9.17041 113.575 8.62337C112.936 8.05809 112.011 7.77546 110.799 7.77546C108.848 7.77546 107.343 8.46838 106.283 9.85421L104.567 8.24044C105.257 7.32871 106.157 6.61755 107.267 6.10698C108.394 5.59641 109.647 5.34112 111.027 5.34112C112.877 5.34112 114.349 5.82434 115.442 6.79078C116.536 7.73899 117.082 9.03365 117.082 10.6748C117.082 11.6959 116.88 12.6624 116.477 13.5741C116.073 14.4858 115.308 15.5252 114.181 16.6922L108.781 22.3268H117.839ZM94.8441 13.1912C97.3673 13.1912 99.2177 13.7109 100.395 14.7502C101.59 15.7714 102.187 17.1755 102.187 18.9625C102.187 20.093 101.934 21.1142 101.43 22.0259C100.942 22.9194 100.193 23.6306 99.1841 24.1594C98.1916 24.6699 96.9636 24.9252 95.5001 24.9252C94.2553 24.9252 93.0526 24.7246 91.8919 24.3235C90.7312 23.9041 89.7724 23.3297 89.0154 22.6003L90.1761 20.4395C90.7816 21.0595 91.5554 21.5609 92.4975 21.9438C93.4395 22.3085 94.4319 22.4909 95.4749 22.4909C96.8038 22.4909 97.8299 22.19 98.5532 21.5883C99.2934 20.9683 99.6635 20.1295 99.6635 19.0719C99.6635 17.9231 99.2597 17.0569 98.4523 16.4734C97.6449 15.8717 96.2655 15.5708 94.3142 15.5708H90.3022L91.2358 5.55994H101.203V7.93957H93.3554L92.8759 13.1912H94.8441Z" fill="#F4F4F4"/>
</svg>
