<svg width="56" height="60" viewBox="0 0 56 60" fill="none" xmlns="http://www.w3.org/2000/svg">
<path fill-rule="evenodd" clip-rule="evenodd" d="M26.6239 0.834903C27.5793 0.209466 28.8037 0 30 0H32C33.1963 0 34.4207 0.209466 35.3761 0.834903C36.2103 1.38095 36.7659 2.19749 36.9408 3.25564C41.7301 4.95083 44.8852 9.01634 45.4335 14.1259C46.9133 14.5344 48 15.8903 48 17.5C48 18.6288 47.4656 19.6328 46.6361 20.2728C47.4774 21.0904 48 22.2342 48 23.5C48 25.9853 45.9853 28 43.5 28H42.8248C42.1228 31.3164 40.7936 34.024 38.5 35.7903V38.5002H42.5C44.5814 38.5002 46.3575 38.8362 47.868 39.434C51.5909 40.9074 53.501 43.8822 54.4698 46.7729C55.4328 49.6461 55.5 52.5242 55.5 54.0003V59.0003V60.0003H54.5H47.5H42.5H31H21C20.8469 60.0003 20.7018 59.9658 20.572 59.9043C20.1771 59.9673 19.772 60 19.3594 60C15.8595 60 12.9093 57.6469 12.0045 54.4365L11.9711 54.4417C11.5257 54.5096 11.0636 54.5312 10.7656 54.5312C4.81993 54.5312 0 49.7113 0 43.7656C0 37.8199 4.81993 33 10.7656 33C14.9114 33 18.5098 35.3434 20.3086 38.7778C20.4882 38.6059 20.7317 38.5002 21 38.5002H23.5V35.7935C21.2107 34.0665 19.4594 31.3976 18.6822 28H17.5C15.0147 28 13 25.9853 13 23.5C13 22.2342 13.5226 21.0904 14.3639 20.2728C13.5344 19.6328 13 18.6288 13 17.5C13 15.8879 14.09 14.5303 15.5732 14.124C16.2141 8.9185 20.2956 4.91517 25.0594 3.25397C25.2347 2.19663 25.7902 1.38067 26.6239 0.834903ZM21.0271 40.5002C21.3546 41.5301 21.5312 42.6273 21.5312 43.7656C21.5312 44.0636 21.5096 44.5258 21.4417 44.9711L21.4365 45.0045C24.6469 45.9093 27 48.8596 27 52.3594C27 54.5932 26.0414 56.6032 24.5131 58.0003H30V46.8929L24.0639 40.5002H21.0271ZM25 5.4144C21.2329 6.96332 18.2485 10.1303 17.6119 14H43.404C42.8731 10.0625 40.5344 6.94941 37 5.42573V11C37 11.5523 36.5523 12 36 12C35.4477 12 35 11.5523 35 11V4C35 3.21538 34.7081 2.78802 34.2807 2.50824C33.7884 2.18597 33.0128 2 32 2H30C28.9872 2 28.2116 2.18597 27.7193 2.50824C27.2919 2.78802 27 3.21538 27 4V11C27 11.5523 26.5523 12 26 12C25.4477 12 25 11.5523 25 11V5.4144ZM17.4704 19.0001L16.5001 19H16.5C15.6716 19 15 18.3284 15 17.5C15 16.6716 15.6716 16 16.5 16H44.5C45.3284 16 46 16.6716 46 17.5C46 18.3284 45.3284 19 44.5 19L43.5005 19H43.5L42.5 19L18.9841 19.0002L17.5002 19H17.5L17.4704 19.0001ZM17.4778 21.0001C16.1073 21.012 15 22.1267 15 23.5C15 24.8807 16.1193 26 17.5 26H18.3339C18.1262 24.4514 18.02 22.7792 17.9918 21.0001L17.4778 21.0001ZM19.9921 21.0002C20.0274 23.1536 20.1807 25.1009 20.4848 26.8264C21.1078 30.3615 22.8614 32.9509 25.064 34.4551C26.5018 35.437 28.4199 36.0002 31 36.0002C33.58 36.0002 35.4982 35.437 36.936 34.455C39.0679 32.9991 40.3731 30.4696 41.0152 26.8264C41.3188 25.1035 41.4606 23.1573 41.4927 21L19.9921 21.0002ZM43.493 21C43.4673 22.7765 43.3695 24.4494 43.1648 26H43.5C44.8807 26 46 24.8807 46 23.5C46 22.1194 44.8809 21.0002 43.5004 21H43.5H43.493ZM25.5 36.973V39.1076L31 45.0306L36.5 39.1076V36.9729C34.9439 37.6585 33.116 38.0002 31 38.0002C28.884 38.0002 27.0561 37.6586 25.5 36.973ZM37.9361 40.5002L32 46.8929V58.0003H41.5V55C41.5 54.4477 41.9477 54 42.5 54C43.0523 54 43.5 54.4477 43.5 55V58.0003H46.5V41.0682C45.6281 40.7897 44.6342 40.6005 43.5 40.5304V48C43.5 48.5523 43.0523 49 42.5 49C41.9477 49 41.5 48.5523 41.5 48V40.5002H37.9361ZM48.5 41.9718V58.0003H53.5V54.0003C53.5 52.5716 53.4294 49.9621 52.5735 47.4085C51.8632 45.2892 50.636 43.271 48.5 41.9718ZM41.5 52.5C41.763 52.5 42.021 52.393 42.2069 52.207C42.3929 52.021 42.5 51.763 42.5 51.5C42.5 51.236 42.393 50.979 42.2069 50.793C42.021 50.606 41.763 50.5 41.5 50.5C41.237 50.5 40.979 50.606 40.793 50.793C40.607 50.979 40.5 51.236 40.5 51.5C40.5 51.763 40.6069 52.021 40.793 52.207C40.979 52.393 41.237 52.5 41.5 52.5ZM2 43.7656C2 38.9245 5.9245 35 10.7656 35C15.6067 35 19.5312 38.9245 19.5312 43.7656C19.5312 43.9885 19.5138 44.3466 19.4646 44.6695C19.4627 44.6818 19.4608 44.6938 19.4589 44.7057C19.4581 44.7103 19.4574 44.7148 19.4566 44.7194C19.4243 44.719 19.3918 44.7188 19.3594 44.7188C15.1396 44.7188 11.7188 48.1396 11.7188 52.3594C11.7188 52.3918 11.719 52.4243 11.7194 52.4566C11.7031 52.4593 11.6865 52.462 11.6694 52.4646C11.3466 52.5138 10.9885 52.5312 10.7656 52.5312C5.9245 52.5312 2 48.6067 2 43.7656ZM11.7655 36.3438C11.7655 35.7915 11.3178 35.3438 10.7655 35.3438C10.2133 35.3438 9.76554 35.7915 9.76554 36.3438L9.76554 37.125C9.76554 37.6773 10.2133 38.125 10.7655 38.125C11.3178 38.125 11.7655 37.6773 11.7655 37.125L11.7655 36.3438ZM7.92071 36.8379C7.64457 36.3596 7.03298 36.1957 6.55469 36.4718C6.0764 36.748 5.91252 37.3596 6.18866 37.8379L6.57929 38.5144C6.85543 38.9927 7.46702 39.1566 7.94531 38.8805C8.4236 38.6043 8.58748 37.9927 8.31134 37.5144L7.92071 36.8379ZM15.3427 37.8379C15.6188 37.3596 15.455 36.748 14.9767 36.4719C14.4984 36.1957 13.8868 36.3596 13.6106 36.8379L13.22 37.5145C12.9439 37.9928 13.1078 38.6044 13.586 38.8805C14.0643 39.1566 14.6759 38.9928 14.9521 38.5145L15.3427 37.8379ZM17.6932 40.9207C18.1715 40.6445 18.3354 40.0329 18.0593 39.5546C17.7831 39.0764 17.1715 38.9125 16.6932 39.1886L16.0167 39.5792C15.5384 39.8554 15.3745 40.467 15.6506 40.9453C15.9268 41.4236 16.5384 41.5874 17.0167 41.3113L17.6932 40.9207ZM4.83805 39.1887C4.35976 38.9126 3.74817 39.0765 3.47203 39.5548C3.19589 40.033 3.35976 40.6446 3.83805 40.9208L4.51463 41.3114C4.99292 41.5875 5.60452 41.4237 5.88066 40.9454C6.1568 40.4671 5.99293 39.8555 5.51463 39.5794L4.83805 39.1887ZM11.7655 40.0546C11.7655 39.5023 11.3178 39.0546 10.7655 39.0546C10.2132 39.0547 9.76553 39.5024 9.76554 40.0547L9.76555 40.9862C8.62674 41.396 7.81244 42.4857 7.81244 43.7657C7.81244 45.3966 9.1346 46.7188 10.7656 46.7188C12.3965 46.7188 13.7187 45.3966 13.7187 43.7657C13.7187 42.4857 12.9044 41.3959 11.7656 40.9862L11.7655 40.0546ZM9.81244 43.7657C9.81244 43.2393 10.2392 42.8126 10.7656 42.8126C11.292 42.8126 11.7187 43.2393 11.7187 43.7657C11.7187 44.2921 11.292 44.7188 10.7656 44.7188C10.2392 44.7188 9.81244 44.2921 9.81244 43.7657ZM3.34375 42.7654C2.79147 42.7654 2.34375 43.2131 2.34375 43.7654C2.34375 44.3177 2.79147 44.7654 3.34375 44.7654H4.125C4.67728 44.7654 5.125 44.3177 5.125 43.7654C5.125 43.2131 4.67728 42.7654 4.125 42.7654H3.34375ZM17.4062 42.7656C16.8539 42.7656 16.4062 43.2133 16.4062 43.7656C16.4062 44.3179 16.8539 44.7656 17.4062 44.7656L18.1874 44.7656C18.7397 44.7656 19.1874 44.3179 19.1874 43.7656C19.1874 43.2133 18.7397 42.7656 18.1874 42.7656L17.4062 42.7656ZM13.7188 52.3594C13.7188 49.2441 16.2441 46.7188 19.3594 46.7188C22.4746 46.7188 25 49.2441 25 52.3594C25 55.4746 22.4746 58 19.3594 58C16.2441 58 13.7188 55.4746 13.7188 52.3594ZM5.51471 47.952C5.99301 47.6759 6.15688 47.0643 5.88074 46.586C5.6046 46.1077 4.99301 45.9438 4.51471 46.22L3.83813 46.6106C3.35984 46.8867 3.19596 47.4983 3.47211 47.9766C3.74825 48.4549 4.35984 48.6188 4.83813 48.3427L5.51471 47.952ZM20.3594 49.0156C20.3594 48.4633 19.9117 48.0156 19.3594 48.0156C18.8071 48.0156 18.3594 48.4633 18.3594 49.0156V52.75V53.75H19.3594H21.9219C22.4742 53.75 22.9219 53.3023 22.9219 52.75C22.9219 52.1977 22.4742 51.75 21.9219 51.75H20.3594V49.0156ZM8.31142 50.0169C8.58756 49.5386 8.42369 48.927 7.94539 48.6508C7.4671 48.3747 6.85551 48.5386 6.57937 49.0169L6.18874 49.6935C5.9126 50.1718 6.07648 50.7833 6.55477 51.0595C7.03306 51.3356 7.64465 51.1718 7.92079 50.6935L8.31142 50.0169ZM11.7656 50.4062C11.7656 49.8539 11.3178 49.4062 10.7656 49.4062C10.2133 49.4062 9.76556 49.8539 9.76556 50.4062V51.1875C9.76556 51.7397 10.2133 52.1875 10.7656 52.1875C11.3178 52.1875 11.7656 51.7397 11.7656 51.1875V50.4062Z" fill="#202020"/>
</svg>
