<svg width="50" height="60" viewBox="0 0 50 60" fill="none" xmlns="http://www.w3.org/2000/svg">
<path fill-rule="evenodd" clip-rule="evenodd" d="M20.6239 0.834903C21.5793 0.209466 22.8037 0 24 0H26C27.1963 0 28.4207 0.209466 29.3761 0.834903C30.2103 1.38095 30.7659 2.19749 30.9408 3.25564C35.7301 4.95083 38.8852 9.01634 39.4335 14.1259C40.9133 14.5344 42 15.8903 42 17.5C42 18.6288 41.4656 19.6328 40.6361 20.2728C41.4774 21.0904 42 22.2342 42 23.5C42 25.9853 39.9853 28 37.5 28H36.8091C36.1096 31.3135 34.7937 34.0227 32.5 35.7901V38.5002H36.5C38.5814 38.5002 40.3575 38.8362 41.868 39.434C45.5909 40.9074 47.501 43.8822 48.4698 46.7729C49.4328 49.6461 49.5 52.5242 49.5 54.0003V59.0003V60.0003H48.5H41.5H36.5H25H13.5H8.5H1.5H0.5V59.0003V54.0003C0.5 52.5242 0.56715 49.6461 1.53016 46.7729C2.49904 43.8822 4.4091 40.9074 8.13202 39.434C9.64254 38.8362 11.4186 38.5002 13.5 38.5002H17.5V35.7934C15.2105 34.0651 13.4727 31.395 12.698 27.9999L11.5001 28H11.5C9.01472 28 7 25.9853 7 23.5C7 22.2342 7.52265 21.0904 8.36391 20.2728C7.53436 19.6328 7 18.6288 7 17.5C7 15.8879 8.08996 14.5303 9.57316 14.124C10.2141 8.9185 14.2956 4.91517 19.0594 3.25397C19.2347 2.19663 19.7902 1.38067 20.6239 0.834903ZM19 5.4144C15.2329 6.96332 12.2485 10.1303 11.6119 14H37.4039C36.8731 10.0625 34.5344 6.94941 31 5.42573V11C31 11.5523 30.5523 12 30 12C29.4477 12 29 11.5523 29 11V4C29 3.21538 28.7081 2.78802 28.2807 2.50824C27.7884 2.18597 27.0128 2 26 2H24C22.9872 2 22.2116 2.18597 21.7193 2.50824C21.2919 2.78802 21 3.21538 21 4V11C21 11.5523 20.5523 12 20 12C19.4477 12 19 11.5523 19 11V5.4144ZM11.5 21C10.1193 21 9 22.1193 9 23.5C9 24.8807 10.1192 25.9999 11.4999 26H11.5L12.3498 25.9999C12.1422 24.4513 12.0359 22.779 12.0078 21H11.5ZM14.008 21C14.0433 23.1533 14.1967 25.1007 14.5007 26.8262C15.1243 30.3644 16.8638 32.9525 19.064 34.4551C20.5018 35.437 22.4199 36.0002 25 36.0002C27.58 36.0002 29.4982 35.437 30.936 34.455C33.0658 33.0005 34.3565 30.4734 34.9992 26.8264C35.3033 25.1009 35.4567 23.1534 35.492 21H14.008ZM37.4922 21C37.4641 22.7791 37.3578 24.4513 37.1502 26H37.5C38.8807 26 40 24.8807 40 23.5C40 22.1193 38.8807 21 37.5 21H37.4922ZM19.5 36.973V39.1076L25 45.0306L30.5 39.1076V36.9729C28.9439 37.6585 27.116 38.0002 25 38.0002C22.884 38.0002 21.0561 37.6586 19.5 36.973ZM31.9361 40.5002L26 46.8929V58.0003H35.5V55C35.5 54.4477 35.9477 54 36.5 54C37.0523 54 37.5 54.4477 37.5 55V58.0003H40.5V41.0682C39.6281 40.7897 38.6342 40.6005 37.5 40.5304V48C37.5 48.5523 37.0523 49 36.5 49C35.9477 49 35.5 48.5523 35.5 48V40.5002H31.9361ZM42.5 41.9718V58.0003H47.5V54.0003C47.5 52.5716 47.4294 49.9621 46.5735 47.4085C45.8632 45.2892 44.636 43.271 42.5 41.9718ZM24 58.0003V46.8929L18.0639 40.5002H14.5V48C14.5 48.5523 14.0523 49 13.5 49C12.9477 49 12.5 48.5523 12.5 48V40.5304C11.3658 40.6005 10.3719 40.7897 9.5 41.0682V58.0003H12.5V55C12.5 54.4477 12.9477 54 13.5 54C14.0523 54 14.5 54.4477 14.5 55V58.0003H24ZM7.5 58.0003V41.9718C5.36398 43.271 4.13683 45.2892 3.42647 47.4085C2.5706 49.9621 2.5 52.5716 2.5 54.0003V58.0003H7.5ZM37.5 19H38.5C39.3284 19 40 18.3284 40 17.5C40 16.6716 39.3284 16 38.5 16H10.5C9.67157 16 9 16.6716 9 17.5C9 18.3284 9.67157 19 10.5 19H11.5H13H36.5H37.5ZM13.5 52.5C13.763 52.5 14.021 52.393 14.2069 52.207C14.3929 52.021 14.5 51.763 14.5 51.5C14.5 51.236 14.393 50.979 14.2069 50.793C14.021 50.606 13.763 50.5 13.5 50.5C13.237 50.5 12.979 50.606 12.793 50.793C12.607 50.979 12.5 51.236 12.5 51.5C12.5 51.763 12.6069 52.021 12.793 52.207C12.979 52.393 13.237 52.5 13.5 52.5ZM37.2069 52.207C37.021 52.393 36.763 52.5 36.5 52.5C36.237 52.5 35.979 52.393 35.793 52.207C35.6069 52.021 35.5 51.763 35.5 51.5C35.5 51.236 35.607 50.979 35.793 50.793C35.979 50.606 36.237 50.5 36.5 50.5C36.763 50.5 37.021 50.606 37.2069 50.793C37.393 50.979 37.5 51.236 37.5 51.5C37.5 51.763 37.3929 52.021 37.2069 52.207Z" fill="#202020"/>
</svg>
