<svg width="56" height="60" viewBox="0 0 56 60" fill="none" xmlns="http://www.w3.org/2000/svg">
<path fill-rule="evenodd" clip-rule="evenodd" d="M29.3741 0.437847C28.4867 0.113168 27.5129 0.113166 26.6255 0.437841L7.15604 7.56074L7.15603 7.56071L7.1485 7.56354C7.01988 7.61177 6.89181 7.65949 6.76454 7.70692L6.76444 7.70696C5.93148 8.01736 5.13287 8.31496 4.439 8.65825C3.62028 9.0633 2.8702 9.56663 2.27724 10.3177C1.08978 11.8218 0.749783 14.0378 1.00216 17.5711C1.01579 17.7619 1.0301 17.991 1.04663 18.2557C1.2239 21.0936 1.65643 28.0183 4.23668 35.5789C7.05924 43.8495 12.4824 52.9745 23.0289 58.3823C25.4269 59.7113 27.3862 60.0231 29.0665 59.804C30.5481 59.6107 31.7431 59.0044 32.6622 58.5381L32.6622 58.5381L32.6624 58.538C32.7603 58.4883 32.8552 58.4402 32.9469 58.3943L32.9469 58.3943L32.9556 58.3899C43.5119 52.983 48.9388 43.8534 51.7626 35.5789C54.3429 28.0184 54.7754 21.0937 54.9527 18.2558V18.2557C54.9692 17.991 54.9835 17.7619 54.9972 17.5711C55.2495 14.0378 54.9095 11.8218 53.7221 10.3177C53.1291 9.56663 52.379 9.0633 51.5603 8.65825C50.8664 8.31496 50.0678 8.01736 49.2349 7.70696C49.1076 7.65952 48.9795 7.61178 48.8508 7.56354L48.8508 7.56351L48.8433 7.56074L29.3741 0.437847ZM27.3126 2.31609C27.7564 2.15375 28.2432 2.15375 28.687 2.31609L48.1486 9.4362L48.1523 9.4376C48.2865 9.48791 48.4169 9.53658 48.5439 9.58395C49.3893 9.89943 50.0791 10.1568 50.6734 10.4509C51.3391 10.7802 51.8078 11.1206 52.1523 11.557C52.8399 12.4279 53.2499 13.9619 53.0022 17.4286C52.9882 17.6245 52.9736 17.8571 52.9569 18.1237C52.7788 20.9591 52.3592 27.6386 49.8698 34.933C47.1497 42.9033 41.989 51.5143 32.048 56.6077C31.9557 56.6539 31.864 56.7001 31.7727 56.7461L31.7727 56.7461C30.8302 57.2214 29.9325 57.6741 28.8078 57.8208C27.6165 57.9762 26.0804 57.7897 23.9853 56.6257L23.9705 56.6175L23.9555 56.6098C14.0118 51.5167 8.84997 42.9044 6.12949 34.933C3.64009 27.6386 3.22053 20.959 3.04243 18.1237C3.02568 17.8571 3.01107 17.6245 2.99708 17.4286C2.74946 13.9619 3.15946 12.4279 3.847 11.557C4.19154 11.1206 4.66021 10.7802 5.32587 10.4509C5.92024 10.1568 6.60997 9.89943 7.45542 9.58396L7.45543 9.58396C7.58234 9.5366 7.71277 9.48793 7.8469 9.43763L27.3126 2.31609ZM29.3585 6.42726C28.4805 6.11022 27.5193 6.11021 26.6413 6.42725L11.1504 12.0211L11.1504 12.0211L11.1429 12.0239C11.0401 12.0619 10.9374 12.0997 10.835 12.1374L10.8349 12.1374C10.1652 12.3837 9.51172 12.624 8.94349 12.9015C8.2701 13.2303 7.63815 13.6461 7.13536 14.2747C6.12615 15.5364 5.85936 17.3711 6.06321 20.1881C6.07374 20.3335 6.08496 20.5105 6.09801 20.7164C6.14706 21.49 6.22193 22.6709 6.38234 24.1106C6.44349 24.6595 6.93802 25.0549 7.48691 24.9937C8.0358 24.9326 8.43119 24.438 8.37004 23.8891C8.21567 22.5036 8.14485 21.3885 8.09554 20.6122L8.09554 20.6122C8.0818 20.3959 8.06974 20.2059 8.058 20.0437C7.85918 17.2963 8.1964 16.1501 8.69722 15.5239C8.94945 15.2086 9.29903 14.9536 9.82108 14.6987C10.2905 14.4695 10.8358 14.2686 11.518 14.0173C11.62 13.9797 11.7251 13.941 11.8334 13.9009L27.3206 8.30836C27.7596 8.14984 28.2402 8.14985 28.6792 8.30837L44.1624 13.8995L44.1662 13.9009C44.2745 13.941 44.3796 13.9797 44.4816 14.0173L44.4816 14.0173C45.1638 14.2686 45.7092 14.4695 46.1785 14.6987C46.7006 14.9536 47.0501 15.2086 47.3024 15.5239C47.8032 16.1501 48.1404 17.2963 47.9416 20.0437C47.9304 20.1986 47.9187 20.3815 47.9053 20.5903C47.6745 24.1902 46.9493 35.5043 39.8392 44.1032C39.4873 44.5289 39.5471 45.1592 39.9727 45.5111C40.3983 45.8631 41.0287 45.8033 41.3806 45.3777C48.9258 36.2525 49.6747 24.3306 49.9004 20.7371L49.9005 20.7357C49.9139 20.5232 49.9254 20.3399 49.9364 20.1881C50.1402 17.3711 49.8734 15.5364 48.8642 14.2747C48.3614 13.6461 47.7295 13.2303 47.0561 12.9015C46.4879 12.624 45.8344 12.3837 45.1647 12.1374C45.0948 12.1117 45.0247 12.0859 44.9546 12.06C44.922 12.048 44.8893 12.036 44.8567 12.0239L44.8567 12.0238L44.8492 12.0211L29.3585 6.42726ZM16.4997 29.4999C16.4997 23.2014 21.5941 18.4999 27.9997 18.4999C34.4053 18.4999 39.4997 23.2014 39.4997 29.4999C39.4997 35.8511 34.351 40.9999 27.9997 40.9999C21.6484 40.9999 16.4997 35.8511 16.4997 29.4999ZM27.9997 16.4999C20.5982 16.4999 14.4997 21.9912 14.4997 29.4999C14.4997 36.9557 20.5439 42.9999 27.9997 42.9999C35.4555 42.9999 41.4997 36.9557 41.4997 29.4999C41.4997 21.9912 35.4012 16.4999 27.9997 16.4999ZM35.1745 23.7603C33.9721 22.558 32.0118 22.5942 30.8548 23.8403L26.4209 28.6152L25.1691 27.5422C23.9111 26.4639 22.0172 26.6096 20.939 27.8676L20.5421 28.3306C19.4639 29.5885 19.6095 31.4824 20.8675 32.5607L24.9062 36.0225C26.119 37.0619 27.9335 36.9689 29.0336 35.8109L35.8822 28.6019C37.0027 27.4224 36.9789 25.5647 35.8285 24.4143L35.1745 23.7603ZM32.3204 25.2012C32.706 24.7858 33.3595 24.7737 33.7603 25.1745L34.4143 25.8286C34.7977 26.212 34.8057 26.8312 34.4322 27.2244L27.5836 34.4334C27.2169 34.8194 26.612 34.8504 26.2078 34.5039L22.1691 31.0422C21.7498 30.6828 21.7012 30.0515 22.0606 29.6321L22.4575 29.1692C22.8169 28.7498 23.4482 28.7013 23.8675 29.0607L25.1193 30.1337C25.9345 30.8324 27.1559 30.7629 27.8865 29.9761L32.3204 25.2012ZM9.88454 31.7261C9.73332 31.1949 9.18013 30.8869 8.64895 31.0381C8.11777 31.1893 7.80975 31.7425 7.96096 32.2737C9.99523 39.4195 14.3588 47.9623 23.9098 52.7973C25.8693 53.8686 27.4855 54.1273 28.8825 53.9475C30.1088 53.7896 31.099 53.2934 31.8379 52.9231L31.838 52.923C31.9171 52.8834 31.9932 52.8452 32.0665 52.8091L32.0665 52.8091L32.0751 52.8048C33.5274 52.0705 34.8618 51.2494 36.0876 50.3588C36.5344 50.0342 36.6334 49.4088 36.3088 48.962C35.9842 48.5152 35.3588 48.4161 34.912 48.7408C33.7732 49.5682 32.5314 50.3327 31.1768 51.0178C31.1031 51.0542 31.0302 51.0905 30.9579 51.1264C30.1959 51.5055 29.5004 51.8514 28.6271 51.9638C27.7122 52.0816 26.5144 51.9446 24.8565 51.0355L24.8418 51.0274L24.8269 51.0199C15.9519 46.5331 11.8363 38.5821 9.88454 31.7261ZM8.49991 28.9998C8.31401 29.1858 8.05601 29.2928 7.79301 29.2928C7.53001 29.2928 7.27201 29.1858 7.08601 28.9998C6.89991 28.8138 6.79301 28.5558 6.79301 28.2928C6.79301 28.0288 6.90001 27.7718 7.08601 27.5858C7.27201 27.3988 7.53001 27.2928 7.79301 27.2928C8.05601 27.2928 8.31401 27.3988 8.49991 27.5858C8.68601 27.7718 8.79301 28.0288 8.79301 28.2928C8.79301 28.5558 8.68591 28.8138 8.49991 28.9998ZM38.9137 47.9999C38.7278 48.1859 38.4698 48.2929 38.2068 48.2929C37.9438 48.2929 37.6858 48.1859 37.4998 47.9999C37.3137 47.8139 37.2068 47.5559 37.2068 47.2929C37.2068 47.0289 37.3138 46.7719 37.4998 46.5859C37.6858 46.3989 37.9438 46.2929 38.2068 46.2929C38.4698 46.2929 38.7278 46.3989 38.9137 46.5859C39.0998 46.7719 39.2068 47.0289 39.2068 47.2929C39.2068 47.5559 39.0997 47.8139 38.9137 47.9999Z" fill="#202020"/>
</svg>
